<?xml version="1.0" encoding="utf-8"?>
<!-- Generator: Adobe Illustrator 16.0.0, SVG Export Plug-In . SVG Version: 6.00 Build 0)  -->
<!DOCTYPE svg PUBLIC "-//W3C//DTD SVG 1.1//EN" "http://www.w3.org/Graphics/SVG/1.1/DTD/svg11.dtd">
<svg version="1.1" id="Layer_1" xmlns="http://www.w3.org/2000/svg" xmlns:xlink="http://www.w3.org/1999/xlink" x="0px" y="0px"
	 width="1000px" height="1000px" viewBox="0 0 1000 1000" enable-background="new 0 0 1000 1000" xml:space="preserve">
<path d="M443.913,139.886c-10.519-44.625-28.783-57.857-40.892-61.538c-1.455-21.948,5.533-50.666,5.533-50.666
	c-26.925,13.226-31.861,39.562-32.369,54.422c-51.277,19.285-62.834,54.54-72.359,80.904
	c-43.989,121.789,3.305,155.484,43.528,176.808c53.805,28.524,76.685,4.149,88.4-14.961
	C480.291,252.214,454.533,184.939,443.913,139.886z"/>
<path d="M237.732,369.482c-18.792-29.364-37.072-38.605-47.125-41.509c0.738-19.446,5.644-39.601,5.644-39.601
	c-22.441,11.023-29.602,31.153-31.662,46.159c-6.576,5.329-10.164,11.339-10.164,11.339c-16.323,19.042-40.229,80.05-40.229,80.05
	c-21.763,75.485,9.968,119.237,9.968,119.237c44.884,50.321,91.125,30.603,91.125,30.603c43.521-19.722,60.523-77.524,60.523-77.524
	C288.282,435.221,237.732,369.482,237.732,369.482z"/>
<path d="M544.404,139.886c10.518-44.625,28.783-57.857,40.893-61.538c1.454-21.948-5.534-50.666-5.534-50.666
	c26.925,13.226,31.86,39.562,32.369,54.422c51.279,19.285,62.834,54.54,72.359,80.904c43.988,121.789-3.306,155.484-43.526,176.808
	c-53.806,28.524-76.685,4.149-88.404-14.961C508.025,252.214,533.783,184.939,544.404,139.886z"/>
<path d="M750.582,369.482c18.796-29.364,37.072-38.605,47.128-41.509c-0.737-19.446-5.644-39.601-5.644-39.601
	c22.44,11.023,29.602,31.153,31.66,46.159c6.577,5.329,10.165,11.339,10.165,11.339c16.323,19.042,40.231,80.05,40.231,80.05
	c21.761,75.485-9.972,119.237-9.972,119.237c-44.882,50.321-91.123,30.603-91.123,30.603
	c-43.524-19.722-60.523-77.524-60.523-77.524C700.035,435.221,750.582,369.482,750.582,369.482z"/>
<g>
	<path d="M395.159,681.514l10.167-55.214l-19.02-33.746h106.316h5.479h106.317L585.395,626.3l9.557,51.892
		c8.023,9.461,25.809,28.152,54.54,46.664c34.484,22.215,91.758,48.338,173.758,52.353c-0.475-1.863-0.973-3.721-1.516-5.565
		c-13.715-46.409-41.747-83.849-77.526-115.444c-28.88-25.501-52.777-54.908-74.112-86.731
		c-18.104-27.009-35.099-54.967-55.391-80.255c-40.284-50.214-94.065-65.998-156.134-53.494
		c-28.921,5.825-51.898,23.512-70.481,45.571c-20.512,24.351-39.665,49.929-58.253,75.8c-26.734,37.204-54.39,73.346-89.583,103.267
		c-19.134,16.264-34.707,35.992-47.622,57.601c-11.434,19.134-20.396,38.886-25.754,59.391
		c83.544-3.534,141.749-30.018,176.635-52.491C369.184,708.315,386.117,691.63,395.159,681.514z"/>
	<path d="M357.845,744.524C319.449,769.5,254.938,799.02,162.302,801.82c-1.75,15.612-1.294,31.666,1.829,48.222
		c9.074,48.099,36.052,83.322,81.003,103.461c29.31,13.135,60.229,11.977,90.759,5.398c2.845-0.613,5.687-1.254,8.527-1.895
		l43.192-234.521C379.265,729.514,369.379,737.021,357.845,744.524z"/>
	<path d="M602.684,720.18l43.926,238.517c18.053,3.749,36.281,6.073,54.953,4.616c60.534-4.714,128.663-56.223,128.375-140.861
		c0.591-0.115,1.187-0.229,1.779-0.343c-1.299-6.751-2.389-13.565-3.531-20.361c-91.293-3.252-154.979-32.472-193.027-57.223
		C622.35,736.192,611.572,727.855,602.684,720.18z"/>
	<polygon points="508.397,703.429 482.328,703.429 477.229,786.993 512.473,786.993 	"/>
	<polygon points="475.514,815.113 470.273,901.086 518.041,901.086 513.844,815.113 	"/>
	<path d="M482.328,703.429h26.07l4.075,83.564h-35.243L482.328,703.429z M470.273,901.086l5.241-85.973h38.33l4.197,85.973H470.273z
		"/>
</g>
</svg>
